# xmcd
#
# Track frame offsets: 
#        150
#        8048
#        16106
#        24141
#        33391
#        41287
#        49163
#        56475
#        64350
#        75068
#        84069
#        91944
#        99819
#        107975
#        114725
#        122547
#        130474
#        138350
#        146366
#        153677
#        166993
#        177515
#        184993
#        193024
#        200773
#        208452
#        219325
#        226952
#        236338
#        244372
#        251847
#        259314
#        265180
#        271981
#
# Disc length: 3807 seconds
#
# Revision: 2
# Processed by: cddbd v1.5.2PL0 Copyright (c) Steve Scherf et al.
# Submitted via: ExactAudioCopy v0.99pb3
#
DISCID=d80edd22
DTITLE=Various Artist - Grandmix 2007 [CD 2)
DYEAR=2008
DGENRE=Dance
TTITLE0=Dubfire - Roadkill
TTITLE1=R.I.O. - De Janeiro
TTITLE2=The Freaks - The Creeps
TTITLE3=DJ Jean - Sexy Lady
TTITLE4=David Guetta and Chriss Willis - Love Is Gone
TTITLE5=Yanou Ft. Liz - King Of My Castle
TTITLE6=Fedde Le Grand Pres. Flamingo Project - Take No Shhhh
TTITLE7=Ida Corr - Let Me Think About It
TTITLE8=David Vendetta - Love To Love You Baby
TTITLE9=Sunfreakz Ft. Andrea Britton - Counting Down The Days
TTITLE10=Niels De Vries - Sueno
TTITLE11=Bobby Burns Fr. Casablanca Connect - From Holland
TTITLE12=Electric Junkies - My Drug (Is Electro)
TTITLE13=Booty Luv - Don't Mess With My Man
TTITLE14=Bob Sinclar Ft. Steve Edwards - Together
TTITLE15=Seamus Haji Ft. KayJay - Last Night A DJ Saved My Life
TTITLE16=Starkillers - Discoteka
TTITLE17=Sharam - PATT (Party All The Time)
TTITLE18=Gregor Salto And Chuckie - Toys Are Nuts
TTITLE19=Kate Ryan - Voyage Voyage
TTITLE20=Armin Van Buuren - The Sound Of Goodbye
TTITLE21=Niels Van Gogh Vs Eniac - Pulverturm 2.0
TTITLE22=Olav Basoski - Da Beat Kicks
TTITLE23=Axwell Ft. Max'C - I Found U
TTITLE24=DJ José - Turn The Lights Off
TTITLE25=Dash Berlin - Till The Sky Falls Down
TTITLE26=Corenell Vs Lisa Marie Experience - Keep On Jumpin'
TTITLE27=Tiësto Ft. Christian Burns - In The Dark
TTITLE28=Tiësto Ft. BT - Break My Fall
TTITLE29=Way Out West - The Fall (Richard Durand Remix)
TTITLE30=Abel Ramos - Te Quiro Puta
TTITLE31=Sander Van Doorn - Riff
TTITLE32=DJ Falk - House Of God
TTITLE33=Filo And Peri Ft. Eric Lumiere - Anthem
EXTD=YEAR: 2007
EXTT0=
EXTT1=
EXTT2=
EXTT3=
EXTT4=
EXTT5=
EXTT6=
EXTT7=
EXTT8=
EXTT9=
EXTT10=
EXTT11=
EXTT12=
EXTT13=
EXTT14=
EXTT15=
EXTT16=
EXTT17=
EXTT18=
EXTT19=
EXTT20=
EXTT21=
EXTT22=
EXTT23=
EXTT24=
EXTT25=
EXTT26=
EXTT27=
EXTT28=
EXTT29=
EXTT30=
EXTT31=
EXTT32=
EXTT33=
PLAYORDER=
